<mxfile host="app.diagrams.net" modified="2023-11-06T12:43:30.375Z" agent="Mozilla/5.0 (Windows NT 10.0; Win64; x64) AppleWebKit/537.36 (KHTML, like Gecko) Chrome/119.0.0.0 Safari/537.36" etag="lRe2QkPCpDZ26cTVYrYz" version="22.0.8" type="github">
  <diagram name="Page-1" id="U58gq1V60ReHHLBbCGqV">
    <mxGraphModel dx="2340" dy="2033" grid="1" gridSize="10" guides="1" tooltips="1" connect="1" arrows="1" fold="1" page="1" pageScale="1" pageWidth="1100" pageHeight="850" math="0" shadow="0">
      <root>
        <mxCell id="0" />
        <mxCell id="1" parent="0" />
        <mxCell id="i4Oab7FajxmY6YAJ8hUI-1" value="" style="rounded=0;whiteSpace=wrap;html=1;strokeWidth=7;" vertex="1" parent="1">
          <mxGeometry x="250" y="180" width="1050" height="280" as="geometry" />
        </mxCell>
        <mxCell id="i4Oab7FajxmY6YAJ8hUI-2" value="" style="rounded=1;whiteSpace=wrap;html=1;strokeWidth=7;" vertex="1" parent="1">
          <mxGeometry x="430" y="275" width="190" height="90" as="geometry" />
        </mxCell>
        <mxCell id="i4Oab7FajxmY6YAJ8hUI-3" value="" style="rounded=1;whiteSpace=wrap;html=1;strokeWidth=7;" vertex="1" parent="1">
          <mxGeometry x="930" y="275" width="190" height="90" as="geometry" />
        </mxCell>
        <mxCell id="i4Oab7FajxmY6YAJ8hUI-4" value="" style="rounded=1;whiteSpace=wrap;html=1;strokeWidth=7;" vertex="1" parent="1">
          <mxGeometry x="680" y="275" width="190" height="90" as="geometry" />
        </mxCell>
        <mxCell id="i4Oab7FajxmY6YAJ8hUI-24" style="edgeStyle=none;rounded=0;orthogonalLoop=1;jettySize=auto;html=1;exitX=0;exitY=0;exitDx=0;exitDy=0;strokeWidth=5;" edge="1" parent="1" source="i4Oab7FajxmY6YAJ8hUI-5">
          <mxGeometry relative="1" as="geometry">
            <mxPoint x="1200" y="1170" as="targetPoint" />
          </mxGeometry>
        </mxCell>
        <mxCell id="i4Oab7FajxmY6YAJ8hUI-25" style="edgeStyle=none;rounded=0;orthogonalLoop=1;jettySize=auto;html=1;exitX=1;exitY=0;exitDx=0;exitDy=0;strokeWidth=5;" edge="1" parent="1" source="i4Oab7FajxmY6YAJ8hUI-5">
          <mxGeometry relative="1" as="geometry">
            <mxPoint x="1200" y="2190" as="targetPoint" />
          </mxGeometry>
        </mxCell>
        <mxCell id="i4Oab7FajxmY6YAJ8hUI-30" style="edgeStyle=none;rounded=0;orthogonalLoop=1;jettySize=auto;html=1;exitX=1;exitY=1;exitDx=0;exitDy=0;strokeWidth=5;" edge="1" parent="1" source="i4Oab7FajxmY6YAJ8hUI-5">
          <mxGeometry relative="1" as="geometry">
            <mxPoint x="460.17647058823536" y="2440" as="targetPoint" />
          </mxGeometry>
        </mxCell>
        <mxCell id="i4Oab7FajxmY6YAJ8hUI-31" style="edgeStyle=none;rounded=0;orthogonalLoop=1;jettySize=auto;html=1;exitX=1;exitY=0;exitDx=0;exitDy=0;strokeWidth=5;" edge="1" parent="1" source="i4Oab7FajxmY6YAJ8hUI-5">
          <mxGeometry relative="1" as="geometry">
            <mxPoint x="809.5882352941178" y="2440" as="targetPoint" />
          </mxGeometry>
        </mxCell>
        <mxCell id="i4Oab7FajxmY6YAJ8hUI-5" value="" style="rounded=0;whiteSpace=wrap;html=1;rotation=90;strokeWidth=7;" vertex="1" parent="1">
          <mxGeometry x="125" y="1505" width="1020" height="350" as="geometry" />
        </mxCell>
        <mxCell id="i4Oab7FajxmY6YAJ8hUI-7" value="" style="rounded=1;whiteSpace=wrap;html=1;rotation=0;strokeWidth=8;" vertex="1" parent="1">
          <mxGeometry x="522.5" y="1375" width="245" height="130" as="geometry" />
        </mxCell>
        <mxCell id="i4Oab7FajxmY6YAJ8hUI-9" value="" style="endArrow=classic;html=1;rounded=0;fillColor=#f8cecc;strokeColor=#ff0800;strokeWidth=7;" edge="1" parent="1">
          <mxGeometry width="50" height="50" relative="1" as="geometry">
            <mxPoint x="270" y="120" as="sourcePoint" />
            <mxPoint x="1160" y="120" as="targetPoint" />
          </mxGeometry>
        </mxCell>
        <mxCell id="i4Oab7FajxmY6YAJ8hUI-10" value="Main Axis" style="text;html=1;strokeColor=none;fillColor=none;align=center;verticalAlign=middle;whiteSpace=wrap;rounded=0;fontSize=50;" vertex="1" parent="1">
          <mxGeometry x="1160" y="50" width="240" height="130" as="geometry" />
        </mxCell>
        <mxCell id="i4Oab7FajxmY6YAJ8hUI-11" value="" style="endArrow=classic;html=1;rounded=0;fillColor=#dae8fc;strokeColor=#006aff;strokeWidth=9;" edge="1" parent="1">
          <mxGeometry width="50" height="50" relative="1" as="geometry">
            <mxPoint x="160" y="170" as="sourcePoint" />
            <mxPoint x="160" y="340" as="targetPoint" />
          </mxGeometry>
        </mxCell>
        <mxCell id="i4Oab7FajxmY6YAJ8hUI-12" value="Cross Axis" style="text;html=1;strokeColor=none;fillColor=none;align=center;verticalAlign=middle;whiteSpace=wrap;rounded=0;fontSize=50;" vertex="1" parent="1">
          <mxGeometry x="100" y="360" width="120" height="65" as="geometry" />
        </mxCell>
        <mxCell id="i4Oab7FajxmY6YAJ8hUI-15" value="" style="endArrow=classic;html=1;rounded=0;fillColor=#f8cecc;strokeColor=default;strokeWidth=7;" edge="1" parent="1">
          <mxGeometry width="50" height="50" relative="1" as="geometry">
            <mxPoint x="320" y="1210" as="sourcePoint" />
            <mxPoint x="320" y="2120" as="targetPoint" />
          </mxGeometry>
        </mxCell>
        <mxCell id="i4Oab7FajxmY6YAJ8hUI-16" value="Main Axis" style="text;html=1;strokeColor=default;fillColor=none;align=center;verticalAlign=middle;whiteSpace=wrap;rounded=0;fontSize=50;strokeWidth=0;" vertex="1" parent="1">
          <mxGeometry x="180" y="2150" width="240" height="130" as="geometry" />
        </mxCell>
        <mxCell id="i4Oab7FajxmY6YAJ8hUI-17" value="" style="endArrow=classic;html=1;rounded=0;fillColor=#dae8fc;strokeColor=#006aff;strokeWidth=9;" edge="1" parent="1">
          <mxGeometry width="50" height="50" relative="1" as="geometry">
            <mxPoint x="390" y="1040" as="sourcePoint" />
            <mxPoint x="690" y="1040" as="targetPoint" />
          </mxGeometry>
        </mxCell>
        <mxCell id="i4Oab7FajxmY6YAJ8hUI-18" value="Cross Axis" style="text;html=1;strokeColor=none;fillColor=none;align=center;verticalAlign=middle;whiteSpace=wrap;rounded=0;fontSize=50;" vertex="1" parent="1">
          <mxGeometry x="740" y="1000" width="120" height="65" as="geometry" />
        </mxCell>
        <mxCell id="i4Oab7FajxmY6YAJ8hUI-19" value="Flex Direction: Row" style="text;html=1;strokeColor=none;fillColor=none;align=center;verticalAlign=middle;whiteSpace=wrap;rounded=0;fontSize=50;" vertex="1" parent="1">
          <mxGeometry x="620" y="-250" width="360" height="170" as="geometry" />
        </mxCell>
        <mxCell id="i4Oab7FajxmY6YAJ8hUI-20" value="Flex Direction: Column" style="text;html=1;strokeColor=none;fillColor=none;align=center;verticalAlign=middle;whiteSpace=wrap;rounded=0;fontSize=50;" vertex="1" parent="1">
          <mxGeometry x="420" y="800" width="360" height="170" as="geometry" />
        </mxCell>
        <mxCell id="i4Oab7FajxmY6YAJ8hUI-21" value="" style="rounded=1;whiteSpace=wrap;html=1;rotation=0;strokeWidth=8;" vertex="1" parent="1">
          <mxGeometry x="530" y="1855" width="245" height="130" as="geometry" />
        </mxCell>
        <mxCell id="i4Oab7FajxmY6YAJ8hUI-22" value="" style="rounded=1;whiteSpace=wrap;html=1;rotation=0;strokeWidth=8;" vertex="1" parent="1">
          <mxGeometry x="522.5" y="1615" width="245" height="130" as="geometry" />
        </mxCell>
        <mxCell id="i4Oab7FajxmY6YAJ8hUI-26" value="Main Start" style="text;html=1;strokeColor=none;fillColor=none;align=center;verticalAlign=middle;whiteSpace=wrap;rounded=0;fontSize=50;" vertex="1" parent="1">
          <mxGeometry x="1210" y="1130" width="190" height="80" as="geometry" />
        </mxCell>
        <mxCell id="i4Oab7FajxmY6YAJ8hUI-27" value="Main End" style="text;html=1;strokeColor=none;fillColor=none;align=center;verticalAlign=middle;whiteSpace=wrap;rounded=0;fontSize=50;" vertex="1" parent="1">
          <mxGeometry x="1210" y="2150" width="190" height="80" as="geometry" />
        </mxCell>
        <mxCell id="i4Oab7FajxmY6YAJ8hUI-32" value="Cross End" style="text;html=1;strokeColor=none;fillColor=none;align=center;verticalAlign=middle;whiteSpace=wrap;rounded=0;fontSize=50;" vertex="1" parent="1">
          <mxGeometry x="740" y="2490" width="190" height="80" as="geometry" />
        </mxCell>
        <mxCell id="i4Oab7FajxmY6YAJ8hUI-33" value="Cross&lt;br&gt;Start" style="text;html=1;strokeColor=none;fillColor=none;align=center;verticalAlign=middle;whiteSpace=wrap;rounded=0;fontSize=50;" vertex="1" parent="1">
          <mxGeometry x="380" y="2490" width="190" height="80" as="geometry" />
        </mxCell>
      </root>
    </mxGraphModel>
  </diagram>
</mxfile>
